REM DIRINDEX 1\2\4,1\2\5,1\2\6,1\3\7,1\3\8
REM DIRNAME folder01,folder02,folder03,folder04,folder05,folder06,folder07,folder08
TITLE ""
FILE "033_Lesson 28_Output_Stage.mp3" MP3
  TRACK 01 AUDIO
    TITLE "0:"
    INDEX 01 00:00:00
  TRACK 02 AUDIO
    TITLE "6:cjc128_2013"
    INDEX 01 00:00:11
  TRACK 03 AUDIO
    TITLE "0:"
    INDEX 01 00:03:21
  TRACK 04 AUDIO
    TITLE "6:cjc128_2014"
    INDEX 01 00:03:43
  TRACK 05 AUDIO
    TITLE "0:"
    INDEX 01 00:05:44
  TRACK 06 AUDIO
    TITLE "4:cjc128_2015"
    INDEX 01 00:06:18
  TRACK 07 AUDIO
    TITLE "0:"
    INDEX 01 00:09:18
  TRACK 08 AUDIO
    TITLE "5:cjc128_2016"
    INDEX 01 00:12:50
  TRACK 09 AUDIO
    TITLE "0:"
    INDEX 01 00:15:34
  TRACK 10 AUDIO
    TITLE "6:cjc128_2017"
    INDEX 01 00:16:26
  TRACK 11 AUDIO
    TITLE "0:"
    INDEX 01 00:18:41
  TRACK 12 AUDIO
    TITLE "4:cjc128_2018"
    INDEX 01 00:19:22
  TRACK 13 AUDIO
    TITLE "0:"
    INDEX 01 00:22:34
  TRACK 14 AUDIO
    TITLE "5:cjc128_2019"
    INDEX 01 00:25:64
  TRACK 15 AUDIO
    TITLE "0:"
    INDEX 01 00:28:74
  TRACK 16 AUDIO
    TITLE "6:cjc128_2020"
    INDEX 01 00:29:46
  TRACK 17 AUDIO
    TITLE "0:"
    INDEX 01 00:31:55
  TRACK 18 AUDIO
    TITLE "4:cjc128_2021"
    INDEX 01 00:32:19
  TRACK 19 AUDIO
    TITLE "0:"
    INDEX 01 00:35:61
  TRACK 20 AUDIO
    TITLE "5:cjc128_2022"
    INDEX 01 00:39:13
  TRACK 21 AUDIO
    TITLE "0:"
    INDEX 01 00:42:41
  TRACK 22 AUDIO
    TITLE "6:cjc128_2023"
    INDEX 01 00:43:15
  TRACK 23 AUDIO
    TITLE "0:"
    INDEX 01 00:45:16
  TRACK 24 AUDIO
    TITLE "4:cjc128_2024"
    INDEX 01 00:45:57
  TRACK 25 AUDIO
    TITLE "0:"
    INDEX 01 00:49:06
  TRACK 26 AUDIO
    TITLE "5:cjc128_2025"
    INDEX 01 00:53:09
  TRACK 27 AUDIO
    TITLE "0:"
    INDEX 01 00:56:39
  TRACK 28 AUDIO
    TITLE "6:cjc128_2026"
    INDEX 01 00:57:21
  TRACK 29 AUDIO
    TITLE "0:"
    INDEX 01 00:59:28
  TRACK 30 AUDIO
    TITLE "4:cjc128_2027"
    INDEX 01 01:00:23
  TRACK 31 AUDIO
    TITLE "0:"
    INDEX 01 01:03:29
  TRACK 32 AUDIO
    TITLE "5:cjc128_2028"
    INDEX 01 01:07:33
  TRACK 33 AUDIO
    TITLE "0:"
    INDEX 01 01:10:47
  TRACK 34 AUDIO
    TITLE "6:cjc128_2029"
    INDEX 01 01:11:35
  TRACK 35 AUDIO
    TITLE "0:"
    INDEX 01 01:13:38
  TRACK 36 AUDIO
    TITLE "4:cjc128_2030"
    INDEX 01 01:14:35
  TRACK 37 AUDIO
    TITLE "0:"
    INDEX 01 01:18:62
  TRACK 38 AUDIO
    TITLE "5:cjc128_2031"
    INDEX 01 01:23:16
  TRACK 39 AUDIO
    TITLE "0:"
    INDEX 01 01:26:72
  TRACK 40 AUDIO
    TITLE "6:cjc128_2032"
    INDEX 01 01:27:57
  TRACK 41 AUDIO
    TITLE "0:"
    INDEX 01 01:29:60
  TRACK 42 AUDIO
    TITLE "4:cjc128_2033"
    INDEX 01 01:30:34
  TRACK 43 AUDIO
    TITLE "0:"
    INDEX 01 01:33:42
  TRACK 44 AUDIO
    TITLE "5:cjc128_2034"
    INDEX 01 01:37:05
  TRACK 45 AUDIO
    TITLE "0:"
    INDEX 01 01:40:17
  TRACK 46 AUDIO
    TITLE "6:cjc128_2035"
    INDEX 01 01:40:68
  TRACK 47 AUDIO
    TITLE "0:"
    INDEX 01 01:42:63
  TRACK 48 AUDIO
    TITLE "4:cjc128_2036"
    INDEX 01 01:43:43
  TRACK 49 AUDIO
    TITLE "0:"
    INDEX 01 01:46:66
  TRACK 50 AUDIO
    TITLE "5:cjc128_2037"
    INDEX 01 01:50:72
  TRACK 51 AUDIO
    TITLE "0:"
    INDEX 01 01:54:25
  TRACK 52 AUDIO
    TITLE "6:cjc128_2038"
    INDEX 01 01:55:15
  TRACK 53 AUDIO
    TITLE "0:"
    INDEX 01 01:57:15
  TRACK 54 AUDIO
    TITLE "4:cjc128_2039"
    INDEX 01 01:57:60
  TRACK 55 AUDIO
    TITLE "0:"
    INDEX 01 02:02:07
  TRACK 56 AUDIO
    TITLE "5:cjc128_2040"
    INDEX 01 02:06:61
  TRACK 57 AUDIO
    TITLE "0:"
    INDEX 01 02:11:19
  TRACK 58 AUDIO
    TITLE "6:cjc128_2041"
    INDEX 01 02:11:64
  TRACK 59 AUDIO
    TITLE "0:"
    INDEX 01 02:13:44
  TRACK 60 AUDIO
    TITLE "4:cjc128_2042"
    INDEX 01 02:14:22
  TRACK 61 AUDIO
    TITLE "0:"
    INDEX 01 02:17:69
  TRACK 62 AUDIO
    TITLE "5:cjc128_2043"
    INDEX 01 02:21:65
  TRACK 63 AUDIO
    TITLE "0:"
    INDEX 01 02:25:23
  TRACK 64 AUDIO
    TITLE "6:cjc128_2044"
    INDEX 01 02:26:05
  TRACK 65 AUDIO
    TITLE "0:"
    INDEX 01 02:28:06
  TRACK 66 AUDIO
    TITLE "4:cjc128_2045"
    INDEX 01 02:28:59
  TRACK 67 AUDIO
    TITLE "0:"
    INDEX 01 02:32:06
  TRACK 68 AUDIO
    TITLE "5:cjc128_2046"
    INDEX 01 02:35:36
  TRACK 69 AUDIO
    TITLE "0:"
    INDEX 01 02:38:24
  TRACK 70 AUDIO
    TITLE "6:cjc128_2047"
    INDEX 01 02:39:02
  TRACK 71 AUDIO
    TITLE "0:"
    INDEX 01 02:41:01
  TRACK 72 AUDIO
    TITLE "4:cjc128_2048"
    INDEX 01 02:41:54
  TRACK 73 AUDIO
    TITLE "0:"
    INDEX 01 02:46:30
  TRACK 74 AUDIO
    TITLE "5:cjc128_2049"
    INDEX 01 02:51:31
  TRACK 75 AUDIO
    TITLE "0:"
    INDEX 01 02:55:74
  TRACK 76 AUDIO
    TITLE "6:cjc128_2050"
    INDEX 01 02:56:53
  TRACK 77 AUDIO
    TITLE "0:"
    INDEX 01 02:58:56
  TRACK 78 AUDIO
    TITLE "4:cjc128_2051"
    INDEX 01 02:59:34
  TRACK 79 AUDIO
    TITLE "0:"
    INDEX 01 03:02:60
  TRACK 80 AUDIO
    TITLE "5:cjc128_2052"
    INDEX 01 03:06:38
  TRACK 81 AUDIO
    TITLE "0:"
    INDEX 01 03:10:03
  TRACK 82 AUDIO
    TITLE "6:cjc128_2053"
    INDEX 01 03:10:50
  TRACK 83 AUDIO
    TITLE "0:"
    INDEX 01 03:12:50
  TRACK 84 AUDIO
    TITLE "4:cjc128_2054"
    INDEX 01 03:13:36
  TRACK 85 AUDIO
    TITLE "0:"
    INDEX 01 03:18:18
  TRACK 86 AUDIO
    TITLE "5:cjc128_2055"
    INDEX 01 03:22:57
  TRACK 87 AUDIO
    TITLE "0:"
    INDEX 01 03:27:15
  TRACK 88 AUDIO
    TITLE "6:cjc128_2056"
    INDEX 01 03:27:62
  TRACK 89 AUDIO
    TITLE "0:"
    INDEX 01 03:29:69
  TRACK 90 AUDIO
    TITLE "4:cjc128_2057"
    INDEX 01 03:30:60
  TRACK 91 AUDIO
    TITLE "0:"
    INDEX 01 03:34:42
  TRACK 92 AUDIO
    TITLE "5:cjc128_2058"
    INDEX 01 03:39:28
  TRACK 93 AUDIO
    TITLE "0:"
    INDEX 01 03:43:51
  TRACK 94 AUDIO
    TITLE "6:cjc128_2059"
    INDEX 01 03:44:29
  TRACK 95 AUDIO
    TITLE "0:"
    INDEX 01 03:46:34
  TRACK 96 AUDIO
    TITLE "4:cjc128_2060"
    INDEX 01 03:47:15
  TRACK 97 AUDIO
    TITLE "0:"
    INDEX 01 03:50:71
  TRACK 98 AUDIO
    TITLE "5:cjc128_2061"
    INDEX 01 03:55:07
  TRACK 99 AUDIO
    TITLE "0:"
    INDEX 01 03:58:53
  TRACK 100 AUDIO
    TITLE "6:cjc128_2062"
    INDEX 01 03:59:32
  TRACK 101 AUDIO
    TITLE "0:"
    INDEX 01 04:01:37
  TRACK 102 AUDIO
    TITLE "4:cjc128_2063"
    INDEX 01 04:02:09
  TRACK 103 AUDIO
    TITLE "0:"
    INDEX 01 04:05:19
  TRACK 104 AUDIO
    TITLE "5:cjc128_2064"
    INDEX 01 04:08:69
  TRACK 105 AUDIO
    TITLE "0:"
    INDEX 01 04:12:06
  TRACK 106 AUDIO
    TITLE "6:cjc128_2065"
    INDEX 01 04:12:53
  TRACK 107 AUDIO
    TITLE "0:"
    INDEX 01 04:14:54
  TRACK 108 AUDIO
    TITLE "4:cjc128_2066"
    INDEX 01 04:15:27
  TRACK 109 AUDIO
    TITLE "0:"
    INDEX 01 04:19:04
  TRACK 110 AUDIO
    TITLE "5:cjc128_2067"
    INDEX 01 04:23:25
  TRACK 111 AUDIO
    TITLE "0:"
    INDEX 01 04:27:05
  TRACK 112 AUDIO
    TITLE "6:cjc128_2068"
    INDEX 01 04:27:56
  TRACK 113 AUDIO
    TITLE "0:"
    INDEX 01 04:29:63
  TRACK 114 AUDIO
    TITLE "4:cjc128_2069"
    INDEX 01 04:30:37
  TRACK 115 AUDIO
    TITLE "0:"
    INDEX 01 04:35:07
  TRACK 116 AUDIO
    TITLE "5:cjc128_2070"
    INDEX 01 04:39:20
  TRACK 117 AUDIO
    TITLE "0:"
    INDEX 01 04:42:69
  TRACK 118 AUDIO
    TITLE "6:cjc128_2071"
    INDEX 01 04:43:45
  TRACK 119 AUDIO
    TITLE "0:"
    INDEX 01 04:45:15
  TRACK 120 AUDIO
    TITLE "4:cjc128_2072"
    INDEX 01 04:45:72
  TRACK 121 AUDIO
    TITLE "0:"
    INDEX 01 04:48:41
  TRACK 122 AUDIO
    TITLE "5:cjc128_2073"
    INDEX 01 04:52:05
  TRACK 123 AUDIO
    TITLE "0:"
    INDEX 01 04:55:07
  TRACK 124 AUDIO
    TITLE "6:cjc128_2074"
    INDEX 01 04:55:58
  TRACK 125 AUDIO
    TITLE "0:"
    INDEX 01 04:57:47
  TRACK 126 AUDIO
    TITLE "4:cjc128_2075"
    INDEX 01 04:58:27
  TRACK 127 AUDIO
    TITLE "0:"
    INDEX 01 05:02:49
  TRACK 128 AUDIO
    TITLE "5:cjc128_2076"
    INDEX 01 05:07:63
  TRACK 129 AUDIO
    TITLE "0:"
    INDEX 01 05:12:18
